<svg width="17" height="17" viewBox="0 0 17 17" fill="none" xmlns="http://www.w3.org/2000/svg">
<g id="Frame">
<path id="Vector" d="M7.83366 11.1667V7.16669H5.83366V5.83335H11.167V7.16669H9.16699V11.1667H7.83366ZM1.16699 15.8334V11.8334H2.50033V5.16669H1.16699V1.16669H5.16699V2.50002H11.8337V1.16669H15.8337V5.16669H14.5003V11.8334H15.8337V15.8334H11.8337V14.5H5.16699V15.8334H1.16699ZM5.16699 13.1667H11.8337V11.8334H13.167V5.16669H11.8337V3.83335H5.16699V5.16669H3.83366V11.8334H5.16699V13.1667ZM2.50033 3.83335H3.83366V2.50002H2.50033V3.83335ZM13.167 3.83335H14.5003V2.50002H13.167V3.83335ZM13.167 14.5H14.5003V13.1667H13.167V14.5ZM2.50033 14.5H3.83366V13.1667H2.50033V14.5Z" fill="#5F98D0"/>
</g>
</svg>
