<svg width="89" height="88" viewBox="0 0 89 88" fill="none" xmlns="http://www.w3.org/2000/svg">
<rect x="0.5" y="0.5" width="88" height="87" rx="3.5" stroke="#B6B9BD" stroke-dasharray="3 3"/>
<path d="M55.0636 29H33.9356C31.2878 29 29.1338 31.2618 29.1338 34.042V51.6891C29.1338 54.4693 31.2878 56.7311 33.9356 56.7311H50.3218C50.9849 56.7311 51.5223 56.1668 51.5223 55.4706C51.5223 54.7744 50.9849 54.2101 50.3218 54.2101H45.9003L43.1402 50.4502L51.8869 38.7687L57.7749 45.602C58.1079 45.9887 58.6333 46.12 59.0966 45.9326C59.5597 45.745 59.8654 45.2775 59.8654 44.7563V34.042C59.8654 31.2618 57.7114 29 55.0636 29ZM57.4645 41.4844L52.7126 35.9695C52.4754 35.694 52.134 35.5418 51.7809 35.5554C51.4275 35.5684 51.0974 35.7442 50.8787 36.0362L41.6281 48.3906L38.4877 44.1128C38.2605 43.8033 37.9093 43.6218 37.537 43.6218C37.1646 43.6221 36.8125 43.8038 36.5855 44.1137L33.9436 47.72C33.5394 48.2719 33.6376 49.0632 34.163 49.4876C34.6887 49.9123 35.4423 49.8089 35.8467 49.2572L37.5379 46.9484L42.8689 54.2101H33.9356C32.6118 54.2101 31.5347 53.0791 31.5347 51.6891V34.042C31.5347 32.652 32.6118 31.521 33.9356 31.521H55.0636C56.3874 31.521 57.4645 32.652 57.4645 34.042V41.4844ZM37.537 33.5378C35.5511 33.5378 33.9356 35.2343 33.9356 37.3193C33.9356 39.4046 35.5511 41.1008 37.537 41.1008C39.5229 41.1008 41.1383 39.4046 41.1383 37.3193C41.1383 35.2343 39.5229 33.5378 37.537 33.5378ZM37.537 38.5798C36.8751 38.5798 36.3365 38.0143 36.3365 37.3193C36.3365 36.6243 36.8751 36.0588 37.537 36.0588C38.1989 36.0588 38.7374 36.6243 38.7374 37.3193C38.7374 38.0143 38.1989 38.5798 37.537 38.5798ZM59.5276 50.5603C59.9888 51.0605 59.9763 51.8585 59.4999 52.3427C59.2668 52.5796 58.9658 52.6975 58.6652 52.6975C58.3513 52.6975 58.038 52.5692 57.8024 52.3137L56.3175 50.7031V57.7395C56.3175 58.4357 55.7801 59 55.1171 59C54.4542 59 53.9166 58.4357 53.9166 57.7395V50.6647L52.3654 52.2713C51.8932 52.7603 51.1331 52.7546 50.6676 52.259C50.202 51.7634 50.2074 50.9653 50.6794 50.4766L52.997 48.0762C53.5635 47.4797 54.3161 47.1513 55.1171 47.1513C55.9203 47.1513 56.6753 47.4816 57.2425 48.0816C57.246 48.0853 57.2495 48.0893 57.253 48.0929L59.5276 50.5603Z" fill="#CCCCCC" fill-opacity="0.5"/>
</svg>
