<svg width="17" height="17" viewBox="0 0 17 17" fill="none" xmlns="http://www.w3.org/2000/svg">
<g id="Frame">
<path id="Vector" d="M7.83317 12.5H9.1665V10.5H11.1665V9.16665H9.1665V7.16665H7.83317V9.16665H5.83317V10.5H7.83317V12.5ZM4.49984 15.1666C4.13317 15.1666 3.81928 15.0361 3.55817 14.775C3.29706 14.5139 3.1665 14.2 3.1665 13.8333V3.16665C3.1665 2.79998 3.29706 2.48609 3.55817 2.22498C3.81928 1.96387 4.13317 1.83331 4.49984 1.83331H9.83317L13.8332 5.83331V13.8333C13.8332 14.2 13.7026 14.5139 13.4415 14.775C13.1804 15.0361 12.8665 15.1666 12.4998 15.1666H4.49984ZM9.1665 6.49998V3.16665H4.49984V13.8333H12.4998V6.49998H9.1665Z" fill="#5F98D0"/>
</g>
</svg>
