<svg width="17" height="18" viewBox="0 0 17 18" fill="none" xmlns="http://www.w3.org/2000/svg">
<g id="background-color">
<path id="Vector" d="M13.5093 12.1849C13.5093 12.4144 13.3232 12.6005 13.0937 12.6005C12.8643 12.6005 12.6782 12.4144 12.6782 12.1849C12.6782 12.1873 12.6782 12.1886 12.6783 12.1886C12.6793 12.1887 12.6927 12.0751 12.8642 11.8179C12.9262 11.7249 13.0023 11.6229 13.0937 11.5118C13.1852 11.6229 13.2613 11.7249 13.3233 11.8179C13.4948 12.0751 13.5082 12.1887 13.5092 12.1886C13.5093 12.1886 13.5093 12.1873 13.5093 12.1849Z" fill="#344054" stroke="#344054" stroke-width="2"/>
<path id="Vector_2" d="M7.37988 2.45471L8.63103 3.70587" stroke="#344054" stroke-width="2" stroke-linecap="round"/>
<path id="Vector_3" d="M8.38058 3.45575L2.87549 8.96086L6.8792 12.9646L12.3843 7.45945L8.38058 3.45575Z" stroke="#344054" stroke-width="2" stroke-linejoin="round"/>
<path id="Vector_4" d="M4.24658 7.61035L10.2488 9.58373" stroke="#344054" stroke-width="2" stroke-linecap="round"/>
<path id="Vector_5" d="M1.41553 15.7238H15.5708" stroke="#344054" stroke-width="1.41553" stroke-linecap="round"/>
</g>
</svg>
