<svg width="18" height="18" viewBox="0 0 18 18" fill="none" xmlns="http://www.w3.org/2000/svg">
<g id="Group">
<path id="Vector" d="M1.16327 17.3162V0.683777H17.7957V17.3162H1.16327Z" stroke="#344054" stroke-opacity="0.75" stroke-width="0.353881"/>
<g id="Group_2">
<path id="Vector_2" fill-rule="evenodd" clip-rule="evenodd" d="M3.46362 3.33789H15.4956C15.8865 3.33789 16.2033 3.65477 16.2033 4.04565V13.9543C16.2033 14.3452 15.8865 14.6621 15.4956 14.6621H3.46362C3.07274 14.6621 2.75586 14.3452 2.75586 13.9543V4.04565C2.75586 3.65477 3.07274 3.33789 3.46362 3.33789Z" stroke="#344054" stroke-opacity="0.75" stroke-width="2" stroke-linecap="round" stroke-linejoin="round"/>
<path id="Vector_3" d="M6.11774 6.87671C6.4109 6.87671 6.64856 6.63905 6.64856 6.34589C6.64856 6.05272 6.4109 5.81506 6.11774 5.81506C5.82457 5.81506 5.58691 6.05272 5.58691 6.34589C5.58691 6.63905 5.82457 6.87671 6.11774 6.87671Z" stroke="#344054" stroke-opacity="0.75" stroke-width="2" stroke-linecap="round" stroke-linejoin="round"/>
<path id="Vector_4" d="M6.29467 9L8.06408 10.4155L10.1874 7.93835L16.2033 12.5388V13.9543C16.2033 14.3452 15.8865 14.6621 15.4956 14.6621H3.46362C3.07274 14.6621 2.75586 14.3452 2.75586 13.9543V12.5388L6.29467 9Z" fill="white" stroke="#344054" stroke-opacity="0.75" stroke-width="2" stroke-linejoin="round"/>
</g>
</g>
</svg>
