<svg width="24" height="24" viewBox="0 0 24 24" fill="none" xmlns="http://www.w3.org/2000/svg">
<g id="Group">
<g id="Group_2">
<path id="Vector" fill-rule="evenodd" clip-rule="evenodd" d="M4.34066 4H20.6323C21.1616 4 21.5907 4.44772 21.5907 5V19C21.5907 19.5523 21.1616 20 20.6323 20H4.34066C3.81138 20 3.38232 19.5523 3.38232 19V5C3.38232 4.44772 3.81138 4 4.34066 4Z" stroke="#344054" stroke-width="2" stroke-linecap="round" stroke-linejoin="round"/>
<path id="Vector_2" d="M7.93457 8.99994C8.33152 8.99994 8.65332 8.66415 8.65332 8.24994C8.65332 7.83573 8.33152 7.49994 7.93457 7.49994C7.53762 7.49994 7.21582 7.83573 7.21582 8.24994C7.21582 8.66415 7.53762 8.99994 7.93457 8.99994Z" stroke="#344054" stroke-width="2" stroke-linecap="round" stroke-linejoin="round"/>
<path id="Vector_3" d="M8.17399 12L10.5698 14L13.4448 10.5L21.5907 17V19C21.5907 19.5523 21.1616 20 20.6323 20H4.34066C3.81138 20 3.38232 19.5523 3.38232 19V17L8.17399 12Z" fill="white" stroke="#344054" stroke-width="2" stroke-linejoin="round"/>
</g>
</g>
</svg>
