<svg width="20" height="20" viewBox="0 0 20 20" fill="none" xmlns="http://www.w3.org/2000/svg">
<g id="bring-to-front">
<path id="Vector" d="M17.0833 7.49988H7.91667C7.68654 7.49988 7.5 7.68642 7.5 7.91654V17.0832C7.5 17.3133 7.68654 17.4999 7.91667 17.4999H17.0833C17.3135 17.4999 17.5 17.3133 17.5 17.0832V7.91654C17.5 7.68642 17.3135 7.49988 17.0833 7.49988Z" fill="white" stroke="#203040" stroke-width="2" stroke-linejoin="round"/>
<path id="Vector_2" d="M4.15377 2.5H2.5V4.18067" stroke="#4D6277" stroke-width="1.41553" stroke-linecap="round" stroke-linejoin="round"/>
<path id="Vector_3" d="M4.16544 12.4999H2.5V10.8383" stroke="#4D6277" stroke-width="1.41553" stroke-linecap="round" stroke-linejoin="round"/>
<path id="Vector_4" d="M10.8345 2.5H12.5002V4.173" stroke="#4D6277" stroke-width="1.41553" stroke-linecap="round" stroke-linejoin="round"/>
<path id="Vector_5" d="M6.67871 2.5H8.33704" stroke="#4D6277" stroke-width="1.41553" stroke-linecap="round" stroke-linejoin="round"/>
<path id="Vector_6" d="M2.5 6.66675C2.5 7.77241 2.5 8.32796 2.5 8.33341" stroke="#4D6277" stroke-width="1.41553" stroke-linecap="round" stroke-linejoin="round"/>
<path id="Vector_7" d="M12.5 6.66675C12.5 7.78196 12.5 8.06075 12.5 7.50316" stroke="#4D6277" stroke-width="1.41553" stroke-linecap="round" stroke-linejoin="round"/>
<path id="Vector_8" d="M6.66357 12.5001H7.49999" stroke="#4D6277" stroke-width="1.41553" stroke-linecap="round"/>
</g>
</svg>
