<svg width="47" height="47" viewBox="0 0 47 47" fill="none" xmlns="http://www.w3.org/2000/svg">
<path d="M23.5037 41.7084C20.9852 41.7084 18.6179 41.2305 16.402 40.2747C14.186 39.3189 12.2584 38.0218 10.6194 36.3834C8.9803 34.7449 7.68255 32.8182 6.72614 30.6032C5.77004 28.3882 5.29199 26.0216 5.29199 23.5034C5.29199 20.9849 5.76988 18.6176 6.72566 16.4016C7.68144 14.1857 8.97854 12.2581 10.617 10.6191C12.2554 8.97999 14.1821 7.68225 16.3972 6.72583C18.6122 5.76974 20.9788 5.29169 23.497 5.29169C26.0155 5.29169 28.3827 5.76958 30.5987 6.72535C32.8147 7.68113 34.7422 8.97824 36.3813 10.6167C38.0204 12.2551 39.3181 14.1818 40.2745 16.3969C41.2306 18.6119 41.7087 20.9785 41.7087 23.4967C41.7087 26.0152 41.2308 28.3824 40.275 30.5984C39.3192 32.8144 38.0221 34.7419 36.3837 36.381C34.7453 38.0201 32.8185 39.3178 30.6035 40.2742C28.3885 41.2303 26.0219 41.7084 23.5037 41.7084ZM23.5003 38.8334C27.7809 38.8334 31.4066 37.3479 34.3774 34.3771C37.3482 31.4063 38.8337 27.7806 38.8337 23.5C38.8337 19.2195 37.3482 15.5938 34.3774 12.6229C31.4066 9.6521 27.7809 8.16669 23.5003 8.16669C19.2198 8.16669 15.5941 9.6521 12.6232 12.6229C9.65241 15.5938 8.16699 19.2195 8.16699 23.5C8.16699 27.7806 9.65241 31.4063 12.6232 34.3771C15.5941 37.3479 19.2198 38.8334 23.5003 38.8334Z" fill="#A7A7A7"/>
</svg>
