<svg width="21" height="20" viewBox="0 0 21 20" fill="none" xmlns="http://www.w3.org/2000/svg">
<g id="copy">
<g id="Icon color">
<path d="M3.27653 3.33337C3.27653 2.87694 3.65343 2.50004 4.10986 2.50004H12.4432C12.8996 2.50004 13.2765 2.87694 13.2765 3.33337C13.2765 3.79361 13.6496 4.16671 14.1099 4.16671C14.5701 4.16671 14.9432 3.79361 14.9432 3.33337C14.9432 1.95647 13.8201 0.833374 12.4432 0.833374H4.10986C2.73296 0.833374 1.60986 1.95647 1.60986 3.33337V11.6667C1.60986 13.0436 2.73296 14.1667 4.10986 14.1667C4.5701 14.1667 4.9432 13.7936 4.9432 13.3334C4.9432 12.8731 4.5701 12.5 4.10986 12.5C3.65343 12.5 3.27653 12.1231 3.27653 11.6667V3.33337Z" fill="#34C276"/>
<path fill-rule="evenodd" clip-rule="evenodd" d="M9.10986 5.83337C7.72915 5.83337 6.60986 6.95266 6.60986 8.33337V16.6667C6.60986 18.0474 7.72915 19.1667 9.10986 19.1667H17.4432C18.8239 19.1667 19.9432 18.0474 19.9432 16.6667V8.33337C19.9432 6.95266 18.8239 5.83337 17.4432 5.83337H9.10986ZM8.27653 8.33337C8.27653 7.87314 8.64963 7.50004 9.10986 7.50004H17.4432C17.9034 7.50004 18.2765 7.87314 18.2765 8.33337V16.6667C18.2765 17.1269 17.9034 17.5 17.4432 17.5H9.10986C8.64963 17.5 8.27653 17.1269 8.27653 16.6667V8.33337Z" fill="#34C276"/>
</g>
</g>
</svg>
