<svg width="25" height="24" viewBox="0 0 25 24" fill="none" xmlns="http://www.w3.org/2000/svg">
<g id="Frame">
<path id="Vector" d="M9.48691 16.1537L12.0869 13.5537L14.6869 16.1537L15.7407 15.1L13.1407 12.5L15.7407 9.89998L14.6869 8.84623L12.0869 11.4462L9.48691 8.84623L8.43316 9.89998L11.0332 12.5L8.43316 15.1L9.48691 16.1537ZM7.39466 20.5C6.8895 20.5 6.46191 20.325 6.11191 19.975C5.76191 19.625 5.58691 19.1974 5.58691 18.6922V5.99998H4.58691V4.49998H9.08691V3.61548H15.0869V4.49998H19.5869V5.99998H18.5869V18.6922C18.5869 19.1974 18.4119 19.625 18.0619 19.975C17.7119 20.325 17.2843 20.5 16.7792 20.5H7.39466ZM17.0869 5.99998H7.08691V18.6922C7.08691 18.7692 7.119 18.8397 7.18316 18.9037C7.24716 18.9679 7.31766 19 7.39466 19H16.7792C16.8562 19 16.9267 18.9679 16.9907 18.9037C17.0548 18.8397 17.0869 18.7692 17.0869 18.6922V5.99998Z" fill="#D91919"/>
</g>
</svg>
