<svg width="21" height="20" viewBox="0 0 21 20" fill="none" xmlns="http://www.w3.org/2000/svg">
<g id="group">
<g id="Icon color">
<path d="M3.48844 4.16663C3.48844 3.7102 3.86535 3.33329 4.32178 3.33329H5.98844C6.44868 3.33329 6.82178 2.9602 6.82178 2.49996C6.82178 2.03972 6.44868 1.66663 5.98844 1.66663H4.32178C2.94487 1.66663 1.82178 2.78972 1.82178 4.16663V5.83329C1.82178 6.29353 2.19487 6.66663 2.65511 6.66663C3.11535 6.66663 3.48844 6.29353 3.48844 5.83329V4.16663Z" fill="#4D6277"/>
<path d="M14.3218 1.66663C13.8615 1.66663 13.4884 2.03972 13.4884 2.49996C13.4884 2.9602 13.8615 3.33329 14.3218 3.33329H15.9884C16.4449 3.33329 16.8218 3.7102 16.8218 4.16663V5.83329C16.8218 6.29353 17.1949 6.66663 17.6551 6.66663C18.1153 6.66663 18.4884 6.29353 18.4884 5.83329V4.16663C18.4884 2.78972 17.3653 1.66663 15.9884 1.66663H14.3218Z" fill="#4D6277"/>
<path d="M17.6551 13.3333C18.1153 13.3333 18.4884 13.7064 18.4884 14.1666V15.8333C18.4884 17.2102 17.3653 18.3333 15.9884 18.3333H14.3218C13.8615 18.3333 13.4884 17.9602 13.4884 17.5C13.4884 17.0397 13.8615 16.6666 14.3218 16.6666H15.9884C16.4449 16.6666 16.8218 16.2897 16.8218 15.8333V14.1666C16.8218 13.7064 17.1949 13.3333 17.6551 13.3333Z" fill="#4D6277"/>
<path d="M3.48844 14.1666C3.48844 13.7064 3.11535 13.3333 2.65511 13.3333C2.19487 13.3333 1.82178 13.7064 1.82178 14.1666V15.8333C1.82178 17.2102 2.94487 18.3333 4.32178 18.3333H5.98844C6.44868 18.3333 6.82178 17.9602 6.82178 17.5C6.82178 17.0397 6.44868 16.6666 5.98844 16.6666H4.32178C3.86535 16.6666 3.48844 16.2897 3.48844 15.8333V14.1666Z" fill="#4D6277"/>
<path fill-rule="evenodd" clip-rule="evenodd" d="M5.15511 6.66663C5.15511 5.74615 5.9013 4.99996 6.82178 4.99996H10.9884C11.9089 4.99996 12.6551 5.74615 12.6551 6.66663V9.16663H13.4884C14.4089 9.16663 15.1551 9.91282 15.1551 10.8333V13.3333C15.1551 14.2538 14.4089 15 13.4884 15H9.32178C8.4013 15 7.65511 14.2538 7.65511 13.3333V10.8333H6.82178C5.9013 10.8333 5.15511 10.0871 5.15511 9.16663V6.66663ZM10.9884 9.16663V6.66663H6.82178V9.16663H10.9884ZM9.32178 10.8333V13.3333H13.4884V10.8333H9.32178Z" fill="#4D6277"/>
</g>
</g>
</svg>
