<svg width="47" height="47" viewBox="0 0 47 47" fill="none" xmlns="http://www.w3.org/2000/svg">
<g id="Frame">
<path id="Vector" d="M23.4997 39.8066L21.3382 37.8634C18.0919 34.9184 15.4074 32.3877 13.2845 30.2714C11.1617 28.1548 9.47948 26.2711 8.23789 24.6202C6.99631 22.9696 6.12893 21.4638 5.63576 20.1028C5.14226 18.7421 4.89551 17.3613 4.89551 15.9604C4.89551 13.1812 5.83257 10.8544 7.7067 8.97995C9.58115 7.10582 11.908 6.16876 14.6872 6.16876C16.3968 6.16876 18.0124 6.56859 19.534 7.36824C21.0557 8.16789 22.3775 9.31466 23.4997 10.8085C24.6218 9.31466 25.9437 8.16789 27.4653 7.36824C28.9869 6.56859 30.6025 6.16876 32.3122 6.16876C35.0914 6.16876 37.4182 7.10582 39.2927 8.97995C41.1668 10.8544 42.1038 13.1812 42.1038 15.9604C42.1038 17.3613 41.8571 18.7421 41.3636 20.1028C40.8704 21.4638 40.003 22.9696 38.7615 24.6202C37.5199 26.2711 35.8408 28.1548 33.7241 30.2714C31.6078 32.3877 28.9202 34.9184 25.6612 37.8634L23.4997 39.8066ZM23.4997 35.8375C26.633 33.0182 29.2115 30.6016 31.2351 28.5878C33.2587 26.5743 34.858 24.825 36.033 23.3399C37.208 21.8548 38.024 20.5361 38.4809 19.3836C38.9379 18.2314 39.1663 17.0904 39.1663 15.9604C39.1663 14.0021 38.5136 12.3702 37.208 11.0646C35.9025 9.75904 34.2705 9.10626 32.3122 9.10626C30.7657 9.10626 29.3365 9.54493 28.0244 10.4223C26.7126 11.2999 25.6739 12.5208 24.9082 14.0848H22.0911C21.3127 12.5081 20.2707 11.2841 18.9652 10.413C17.6596 9.54183 16.2336 9.10626 14.6872 9.10626C12.7412 9.10626 11.1124 9.75904 9.80064 11.0646C8.48889 12.3702 7.83301 14.0021 7.83301 15.9604C7.83301 17.0904 8.06148 18.2314 8.51842 19.3836C8.97537 20.5361 9.79134 21.8548 10.9663 23.3399C12.1413 24.825 13.7406 26.5712 15.7643 28.5785C17.7879 30.5858 20.3663 33.0054 23.4997 35.8375Z" fill="#A7A7A7"/>
</g>
</svg>
