<svg width="15" height="15" viewBox="0 0 15 15" fill="none" xmlns="http://www.w3.org/2000/svg">
<g id="Frame">
<path id="Vector" d="M7.49312 11.0095C7.67156 11.0095 7.82229 10.948 7.94531 10.8248C8.06833 10.7016 8.12984 10.5507 8.12984 10.3722C8.12984 10.1938 8.06823 10.043 7.945 9.92C7.82177 9.79708 7.67094 9.73562 7.4925 9.73562C7.31406 9.73562 7.16333 9.79724 7.04031 9.92047C6.91729 10.0437 6.85578 10.1945 6.85578 10.373C6.85578 10.5514 6.9174 10.7021 7.04063 10.8252C7.16385 10.9481 7.31469 11.0095 7.49312 11.0095ZM7.05047 8.77156H7.93031C7.93833 8.46396 7.98339 8.21818 8.06547 8.03422C8.14766 7.85036 8.34698 7.60661 8.66344 7.30297C8.93833 7.02807 9.14885 6.77422 9.295 6.54141C9.44125 6.3087 9.51437 6.03385 9.51437 5.71688C9.51437 5.17885 9.32109 4.75859 8.93453 4.45609C8.54786 4.1537 8.09052 4.0025 7.5625 4.0025C7.04083 4.0025 6.60917 4.14172 6.2675 4.42016C5.92573 4.69859 5.68193 5.02651 5.53609 5.40391L6.33891 5.72594C6.41505 5.51844 6.54526 5.3163 6.72953 5.11953C6.9138 4.92286 7.18745 4.82453 7.55047 4.82453C7.91984 4.82453 8.19286 4.92568 8.36953 5.12797C8.5463 5.33036 8.63469 5.55292 8.63469 5.79562C8.63469 6.00802 8.57417 6.20234 8.45312 6.37859C8.33219 6.55484 8.17797 6.7251 7.99047 6.88937C7.58016 7.25958 7.32094 7.5549 7.21281 7.77531C7.10458 7.99563 7.05047 8.32771 7.05047 8.77156ZM7.50109 13.4375C6.67984 13.4375 5.90792 13.2817 5.18531 12.97C4.46271 12.6583 3.83417 12.2354 3.29969 11.7011C2.76521 11.1668 2.34203 10.5385 2.03016 9.81625C1.71839 9.09396 1.5625 8.32224 1.5625 7.50109C1.5625 6.67984 1.71833 5.90792 2.03 5.18531C2.34167 4.46271 2.76464 3.83417 3.29891 3.29969C3.83318 2.76521 4.46146 2.34203 5.18375 2.03016C5.90604 1.71839 6.67776 1.5625 7.49891 1.5625C8.32016 1.5625 9.09208 1.71833 9.81469 2.03C10.5373 2.34167 11.1658 2.76464 11.7003 3.29891C12.2348 3.83318 12.658 4.46146 12.9698 5.18375C13.2816 5.90604 13.4375 6.67776 13.4375 7.49891C13.4375 8.32016 13.2817 9.09208 12.97 9.81469C12.6583 10.5373 12.2354 11.1658 11.7011 11.7003C11.1668 12.2348 10.5385 12.658 9.81625 12.9698C9.09396 13.2816 8.32224 13.4375 7.50109 13.4375ZM7.5 12.5C8.89583 12.5 10.0781 12.0156 11.0469 11.0469C12.0156 10.0781 12.5 8.89583 12.5 7.5C12.5 6.10417 12.0156 4.92188 11.0469 3.95312C10.0781 2.98438 8.89583 2.5 7.5 2.5C6.10417 2.5 4.92188 2.98438 3.95312 3.95312C2.98438 4.92188 2.5 6.10417 2.5 7.5C2.5 8.89583 2.98438 10.0781 3.95312 11.0469C4.92188 12.0156 6.10417 12.5 7.5 12.5Z" fill="#5F6368"/>
</g>
</svg>
