<svg width="28" height="29" viewBox="0 0 28 29" fill="none" xmlns="http://www.w3.org/2000/svg">
<g id="Frame">
<path id="Vector" d="M22.1667 4H5.83333C4.54467 4 3.5 5.04467 3.5 6.33333V22.6667C3.5 23.9553 4.54467 25 5.83333 25H22.1667C23.4553 25 24.5 23.9553 24.5 22.6667V6.33333C24.5 5.04467 23.4553 4 22.1667 4Z" stroke="#344054" stroke-width="2.5" stroke-linecap="round" stroke-linejoin="round"/>
<path id="Vector_2" d="M10.4998 13.3334C11.7885 13.3334 12.8332 12.2887 12.8332 11C12.8332 9.71136 11.7885 8.66669 10.4998 8.66669C9.21117 8.66669 8.1665 9.71136 8.1665 11C8.1665 12.2887 9.21117 13.3334 10.4998 13.3334Z" stroke="#344054" stroke-width="2.5" stroke-linecap="round" stroke-linejoin="round"/>
<path id="Vector_3" d="M24.5 18L20.8997 14.3997C20.4621 13.9622 19.8687 13.7165 19.25 13.7165C18.6313 13.7165 18.0379 13.9622 17.6003 14.3997L7 25" stroke="#344054" stroke-width="2.5" stroke-linecap="round" stroke-linejoin="round"/>
</g>
</svg>
