<svg width="21" height="20" viewBox="0 0 21 20" fill="none" xmlns="http://www.w3.org/2000/svg">
<g id="lock">
<path id="Icon color" fill-rule="evenodd" clip-rule="evenodd" d="M5.46566 8.33325V5.83325C5.46566 4.50717 5.99244 3.2354 6.93012 2.29772C7.86781 1.36004 9.13958 0.833252 10.4657 0.833252C11.7917 0.833252 13.0635 1.36004 14.0012 2.29772C14.9389 3.2354 15.4657 4.50717 15.4657 5.83325V8.33325H16.299C17.6797 8.33325 18.799 9.45254 18.799 10.8333V16.6666C18.799 18.0473 17.6797 19.1666 16.299 19.1666H4.63232C3.25161 19.1666 2.13232 18.0473 2.13232 16.6666V10.8333C2.13232 9.45254 3.25161 8.33325 4.63232 8.33325H5.46566ZM8.10863 3.47623C8.73376 2.85111 9.5816 2.49992 10.4657 2.49992C11.3497 2.49992 12.1976 2.85111 12.8227 3.47623C13.4478 4.10135 13.799 4.9492 13.799 5.83325V8.33325H7.13232V5.83325C7.13232 4.9492 7.48351 4.10135 8.10863 3.47623ZM4.63232 9.99992C4.17209 9.99992 3.79899 10.373 3.79899 10.8333V16.6666C3.79899 17.1268 4.17209 17.4999 4.63232 17.4999H16.299C16.7592 17.4999 17.1323 17.1268 17.1323 16.6666V10.8333C17.1323 10.373 16.7592 9.99992 16.299 9.99992H4.63232Z" fill="#383F46"/>
</g>
</svg>
