<svg width="14" height="16" viewBox="0 0 14 16" fill="none" xmlns="http://www.w3.org/2000/svg">
<path d="M10.4649 4.09091H12.1695C12.0914 1.89631 10.0672 0.255681 7.25471 0.255681C4.47061 0.255681 2.28311 1.875 2.28311 4.31818C2.28311 6.27841 3.70357 7.44318 5.9763 8.09659L7.76607 8.60795C9.30016 9.03409 10.6638 9.57386 10.6638 11.0227C10.6638 12.6136 9.12971 13.6648 7.11266 13.6648C5.37971 13.6648 3.84561 12.8977 3.70357 11.25H1.88539C2.05584 13.6364 3.98766 15.2557 7.11266 15.2557C10.4649 15.2557 12.3683 13.4091 12.3683 11.0511C12.3683 8.32386 9.78311 7.44318 8.27743 7.04545L6.80016 6.64773C5.72061 6.36364 3.98766 5.79545 3.98766 4.23295C3.98766 2.84091 5.26607 1.81818 7.19789 1.81818C8.95925 1.81818 10.2945 2.65625 10.4649 4.09091Z" fill="#344054"/>
<path d="M0.749023 8.4517H13.5047V9.81534H0.749023V8.4517Z" fill="#344054"/>
</svg>
