<svg width="18" height="17" viewBox="0 0 18 17" fill="none" xmlns="http://www.w3.org/2000/svg">
<g id="Frame" clip-path="url(#clip0_565_3386)">
<path id="Vector" d="M8.52116 15.5045C6.65314 15.5045 5.06461 14.8885 3.75556 13.6565C2.44652 12.4246 1.79199 10.9167 1.79199 9.13278C1.79199 8.26628 1.96889 7.45244 2.3227 6.69128C2.67635 5.93011 3.15629 5.25038 3.76252 4.6521L8.52116 0.171204L13.2798 4.6521C13.886 5.25038 14.366 5.93011 14.7196 6.69128C15.0734 7.45244 15.2503 8.26628 15.2503 9.13278C15.2503 10.9167 14.5958 12.4246 13.2868 13.6565C11.9777 14.8885 10.3892 15.5045 8.52116 15.5045ZM3.19121 9.90772H13.8233C14.0027 8.87446 13.9004 7.98916 13.5162 7.25182C13.1321 6.51433 12.7381 5.95903 12.3344 5.58591L8.52116 1.9695L4.70796 5.58591C4.30421 5.95903 3.90936 6.51433 3.52341 7.25182C3.13745 7.98916 3.02672 8.87446 3.19121 9.90772Z" fill="#5F6368"/>
</g>
<defs>
<clipPath id="clip0_565_3386">
<rect width="17" height="16" fill="white" transform="translate(0.0917969 0.171204)"/>
</clipPath>
</defs>
</svg>
