<svg width="28" height="29" viewBox="0 0 28 29" fill="none" xmlns="http://www.w3.org/2000/svg">
<g id="heroicons-solid/qr-code">
<path id="Vector (Stroke)" fill-rule="evenodd" clip-rule="evenodd" d="M2 5C2 3.61929 3.11929 2.5 4.5 2.5H10.5C11.8807 2.5 13 3.61929 13 5V11C13 12.3807 11.8807 13.5 10.5 13.5H4.5C3.11929 13.5 2 12.3807 2 11V5ZM4.5 4.5C4.22386 4.5 4 4.72386 4 5V11C4 11.2761 4.22386 11.5 4.5 11.5H10.5C10.7761 11.5 11 11.2761 11 11V5C11 4.72386 10.7761 4.5 10.5 4.5H4.5ZM15 5C15 3.61929 16.1193 2.5 17.5 2.5H23.5C24.8807 2.5 26 3.61929 26 5V11C26 12.3807 24.8807 13.5 23.5 13.5H17.5C16.1193 13.5 15 12.3807 15 11V5ZM17.5 4.5C17.2239 4.5 17 4.72386 17 5V11C17 11.2761 17.2239 11.5 17.5 11.5H23.5C23.7761 11.5 24 11.2761 24 11V5C24 4.72386 23.7761 4.5 23.5 4.5H17.5ZM6 7.5C6 6.94772 6.44772 6.5 7 6.5H8C8.55228 6.5 9 6.94772 9 7.5V8.5C9 9.05228 8.55228 9.5 8 9.5H7C6.44772 9.5 6 9.05228 6 8.5V7.5ZM19 7.5C19 6.94772 19.4477 6.5 20 6.5H21C21.5523 6.5 22 6.94772 22 7.5V8.5C22 9.05228 21.5523 9.5 21 9.5H20C19.4477 9.5 19 9.05228 19 8.5V7.5ZM2 18C2 16.6193 3.11929 15.5 4.5 15.5H10.5C11.8807 15.5 13 16.6193 13 18V24C13 25.3807 11.8807 26.5 10.5 26.5H4.5C3.11929 26.5 2 25.3807 2 24V18ZM4.5 17.5C4.22386 17.5 4 17.7239 4 18V24C4 24.2761 4.22386 24.5 4.5 24.5H10.5C10.7761 24.5 11 24.2761 11 24V18C11 17.7239 10.7761 17.5 10.5 17.5H4.5ZM15 16.5C15 15.9477 15.4477 15.5 16 15.5H17C17.5523 15.5 18 15.9477 18 16.5V17.5C18 18.0523 17.5523 18.5 17 18.5H16C15.4477 18.5 15 18.0523 15 17.5V16.5ZM23 16.5C23 15.9477 23.4477 15.5 24 15.5H25C25.5523 15.5 26 15.9477 26 16.5V17.5C26 18.0523 25.5523 18.5 25 18.5H24C23.4477 18.5 23 18.0523 23 17.5V16.5ZM6 20.5C6 19.9477 6.44772 19.5 7 19.5H8C8.55228 19.5 9 19.9477 9 20.5V21.5C9 22.0523 8.55228 22.5 8 22.5H7C6.44772 22.5 6 22.0523 6 21.5V20.5ZM19 20.5C19 19.9477 19.4477 19.5 20 19.5H21C21.5523 19.5 22 19.9477 22 20.5V21.5C22 22.0523 21.5523 22.5 21 22.5H20C19.4477 22.5 19 22.0523 19 21.5V20.5ZM15 24.5C15 23.9477 15.4477 23.5 16 23.5H17C17.5523 23.5 18 23.9477 18 24.5V25.5C18 26.0523 17.5523 26.5 17 26.5H16C15.4477 26.5 15 26.0523 15 25.5V24.5ZM23 24.5C23 23.9477 23.4477 23.5 24 23.5H25C25.5523 23.5 26 23.9477 26 24.5V25.5C26 26.0523 25.5523 26.5 25 26.5H24C23.4477 26.5 23 26.0523 23 25.5V24.5Z" fill="#344054"/>
</g>
</svg>
