<svg width="21" height="20" viewBox="0 0 21 20" fill="none" xmlns="http://www.w3.org/2000/svg">
<g id="redo">
<path id="Icon color" d="M18.8332 5.83333C18.8332 5.3731 18.4601 5 17.9998 5C17.5396 5 17.1665 5.3731 17.1665 5.83333V8.9622L16.0568 7.96344C14.5301 6.59414 12.5511 5.83542 10.5003 5.83333C8.29012 5.83333 6.17008 6.71131 4.60728 8.27411C3.04448 9.83691 2.1665 11.9565 2.1665 14.1667C2.1665 14.6269 2.5396 15 2.99984 15C3.46007 15 3.83317 14.6269 3.83317 14.1667C3.83317 12.3986 4.53555 10.7029 5.78579 9.45262C7.03594 8.20248 8.73146 7.50011 10.4994 7.5C12.1397 7.50178 13.7222 8.10868 14.9434 9.2037L15.8282 10H12.9998C12.5396 10 12.1665 10.3731 12.1665 10.8333C12.1665 11.2936 12.5396 11.6667 12.9998 11.6667H17.9998C18.4601 11.6667 18.8332 11.2936 18.8332 10.8333V5.83333Z" fill="#4D6277"/>
</g>
</svg>
