<svg width="26" height="27" viewBox="0 0 26 27" fill="none" xmlns="http://www.w3.org/2000/svg">
<g id="Icon color">
<path fill-rule="evenodd" clip-rule="evenodd" d="M12.8996 0.305068C13.2791 0.29145 13.6556 0.376085 13.9926 0.55077C14.3297 0.725456 14.616 0.984266 14.8236 1.30211L14.8386 1.32569L19.6238 9.0076C19.8397 9.33005 19.9667 9.70402 19.9917 10.0917C20.0176 10.4929 19.9332 10.8935 19.7477 11.2502C19.5623 11.6068 19.2828 11.906 18.9395 12.1152C18.5963 12.3244 18.2023 12.4358 17.8003 12.4372L17.7958 12.4372H8.19452C7.8032 12.4509 7.41501 12.3601 7.07005 12.1737C6.71246 11.9806 6.41525 11.6923 6.21129 11.3407C6.00733 10.9892 5.90457 10.588 5.91436 10.1817C5.92407 9.77863 6.0442 9.38598 6.26157 9.04651L11.0735 1.39989C11.2568 1.08451 11.5157 0.819365 11.8271 0.628499C12.1508 0.430098 12.5202 0.318687 12.8996 0.305068ZM12.9777 3.24166L8.82255 9.84459H17.0908L12.9777 3.24166Z" fill="#344054"/>
<path fill-rule="evenodd" clip-rule="evenodd" d="M0 17.6223C0 16.1905 1.16074 15.0297 2.59259 15.0297H9.07407C10.5059 15.0297 11.6667 16.1905 11.6667 17.6223V24.1038C11.6667 25.5356 10.5059 26.6964 9.07407 26.6964H2.59259C1.16074 26.6964 0 25.5356 0 24.1038V17.6223ZM9.07407 17.6223H2.59259V24.1038H9.07407V17.6223Z" fill="#344054"/>
<path fill-rule="evenodd" clip-rule="evenodd" d="M20.0926 15.0297C16.8709 15.0297 14.2593 17.6414 14.2593 20.863C14.2593 24.0847 16.8709 26.6964 20.0926 26.6964C23.3143 26.6964 25.9259 24.0847 25.9259 20.863C25.9259 17.6414 23.3143 15.0297 20.0926 15.0297ZM16.8519 20.863C16.8519 19.0732 18.3028 17.6223 20.0926 17.6223C21.8824 17.6223 23.3333 19.0732 23.3333 20.863C23.3333 22.6529 21.8824 24.1038 20.0926 24.1038C18.3028 24.1038 16.8519 22.6529 16.8519 20.863Z" fill="#344054"/>
</g>
</svg>
