<svg width="28" height="29" viewBox="0 0 28 29" fill="none" xmlns="http://www.w3.org/2000/svg">
<path d="M9.81277 24.83C11.0728 24.63 11.8428 24.43 12.1228 24.23C12.4028 24.01 12.5428 23.59 12.5428 22.97V6.77C9.96277 6.81 8.58277 6.87 8.40277 6.95C8.22277 7.03 8.08277 7.12 7.98277 7.22C7.74277 7.54 7.45277 8.67 7.11277 10.61L5.58277 10.49C5.56277 10.19 5.55277 9.61 5.55277 8.75C5.55277 7.87 5.64277 6.69 5.82277 5.21H22.1728C22.3528 6.69 22.4428 7.87 22.4428 8.75C22.4428 9.61 22.4328 10.19 22.4128 10.49L20.8828 10.61C20.5428 8.67 20.2428 7.54 19.9828 7.22C19.9028 7.12 19.7728 7.03 19.5928 6.95C19.4128 6.87 18.0328 6.81 15.4528 6.77V23.69C15.4528 24.15 15.6528 24.41 16.0528 24.47L18.3628 24.83L18.2428 26H9.99277L9.81277 24.83Z" fill="black"/>
</svg>
