<svg width="28" height="30" viewBox="0 0 28 30" fill="none" xmlns="http://www.w3.org/2000/svg">
<g id="logo22 1" clip-path="url(#clip0_2312_1672)">
<g id="Clip path group">
<mask id="mask0_2312_1672" style="mask-type:luminance" maskUnits="userSpaceOnUse" x="0" y="0" width="28" height="30">
<g id="clip0_8042_16520">
<path id="Vector" d="M27.6442 0H0V30H27.6442V0Z" fill="white"/>
</g>
</mask>
<g mask="url(#mask0_2312_1672)">
<g id="Group">
<path id="Vector_2" d="M23.8782 3.46176C24.4391 2.63758 24.2788 1.56616 23.4775 0.989232C23.0769 0.741978 22.6763 0.577144 22.1955 0.659562C21.7147 0.741978 21.3141 0.989232 21.0737 1.40132L12.5801 13.187L10.657 15.9068C9.85578 16.3189 5.04807 18.5442 1.4423 18.7914H1.36218C1.12179 18.7914 0.961536 18.7914 0.72115 18.8739C0.24038 18.9563 0.0801234 19.3683 -5.05522e-06 19.5332C-0.24039 20.9343 0.480764 22.665 2.24359 24.5607C3.44551 25.9617 4.80769 26.9508 4.80769 26.9508C5.1282 27.198 5.44871 27.198 5.60897 26.9508L7.29168 25.0551L6.41026 27.6926C6.33011 27.9398 6.41026 28.187 6.65065 28.3519C6.73074 28.4343 8.73397 29.6706 10.0962 29.9178C10.1763 29.9178 10.1763 29.9178 10.2564 29.9178C10.4167 29.9178 10.5769 29.9178 10.7372 29.753C11.2179 29.3409 11.6186 28.2695 11.8589 27.2804C12.0993 26.2914 12.3397 24.9728 12.6603 23.3244C13.0609 20.9343 13.3013 18.6266 13.3814 18.0497L15.3045 15.3299L23.8782 3.46176Z" fill="#8D8B8B"/>
<path id="Vector_3" d="M26.2819 19.451C25.4005 18.5444 24.1184 17.9675 22.7562 17.9675C22.1953 17.9675 21.6344 18.0499 21.0735 18.2971L17.3876 14.506C17.1472 14.2587 16.7466 14.2587 16.5062 14.5883L14.9037 16.8136C14.7434 17.0609 14.7434 17.3905 14.9838 17.5554L18.3492 21.0169C17.7082 22.8301 18.1088 25.0554 19.4709 26.3741C20.3524 27.2807 21.5543 27.7751 22.7562 27.7751C23.237 27.7751 23.6376 27.6928 24.1184 27.5279L25.0799 27.1982L22.035 23.984C21.7947 23.7367 21.7947 23.3246 22.035 23.0774L23.237 21.7587C23.3171 21.6763 23.4774 21.5938 23.6376 21.5938C23.7979 21.5938 24.0383 21.6763 24.1184 21.8411L27.2434 25.0554L27.4838 23.984C27.9646 22.418 27.4838 20.6873 26.2819 19.451Z" fill="#8D8B8B"/>
<path id="Vector_4" d="M5.60925 9.8903C6.17014 9.8903 6.73102 9.80786 7.29195 9.56066L10.8977 13.2694C11.1381 13.5167 11.5387 13.5167 11.7791 13.187L13.3817 10.9617C13.542 10.7145 13.542 10.3848 13.3016 10.22L10.0163 6.84086C10.6573 5.02767 10.2567 2.8024 8.89449 1.48372C7.61244 0.165035 5.84966 -0.32947 4.24707 0.247452L3.28553 0.494705L6.41054 3.70899C6.65093 3.95624 6.65093 4.36833 6.41054 4.61558L5.12848 5.85185C4.88809 6.09908 4.40733 6.09908 4.24707 5.85185L1.12207 2.63756L0.881685 3.70899C0.481046 5.35734 0.881685 7.1705 2.08361 8.4068C2.96502 9.3134 4.24707 9.8903 5.60925 9.8903Z" fill="#8D8B8B"/>
</g>
</g>
</g>
</g>
<defs>
<clipPath id="clip0_2312_1672">
<rect width="28" height="30" fill="white"/>
</clipPath>
</defs>
</svg>
