<svg width="28" height="29" viewBox="0 0 28 29" fill="none" xmlns="http://www.w3.org/2000/svg">
<g id="layout-dashboard">
<g id="Icon color">
<path fill-rule="evenodd" clip-rule="evenodd" d="M4.66683 2.83337C3.37816 2.83337 2.3335 3.87804 2.3335 5.16671V13.3334C2.3335 14.622 3.37816 15.6667 4.66683 15.6667H10.5002C11.7888 15.6667 12.8335 14.622 12.8335 13.3334V5.16671C12.8335 3.87804 11.7888 2.83337 10.5002 2.83337H4.66683ZM4.66683 5.16671H10.5002V13.3334H4.66683V5.16671Z" fill="#344054"/>
<path fill-rule="evenodd" clip-rule="evenodd" d="M17.5002 2.83337C16.2115 2.83337 15.1668 3.87804 15.1668 5.16671V8.66671C15.1668 9.95537 16.2115 11 17.5002 11H23.3335C24.6222 11 25.6668 9.95537 25.6668 8.66671V5.16671C25.6668 3.87804 24.6222 2.83337 23.3335 2.83337H17.5002ZM17.5002 5.16671H23.3335V8.66671H17.5002V5.16671Z" fill="#344054"/>
<path fill-rule="evenodd" clip-rule="evenodd" d="M15.1668 15.6667C15.1668 14.378 16.2115 13.3334 17.5002 13.3334H23.3335C24.6222 13.3334 25.6668 14.378 25.6668 15.6667V23.8334C25.6668 25.122 24.6222 26.1667 23.3335 26.1667H17.5002C16.2115 26.1667 15.1668 25.122 15.1668 23.8334V15.6667ZM23.3335 15.6667H17.5002V23.8334H23.3335V15.6667Z" fill="#344054"/>
<path fill-rule="evenodd" clip-rule="evenodd" d="M4.66683 18C3.37816 18 2.3335 19.0447 2.3335 20.3334V23.8334C2.3335 25.122 3.37816 26.1667 4.66683 26.1667H10.5002C11.7888 26.1667 12.8335 25.122 12.8335 23.8334V20.3334C12.8335 19.0447 11.7888 18 10.5002 18H4.66683ZM4.66683 20.3334H10.5002V23.8334H4.66683V20.3334Z" fill="#344054"/>
</g>
</g>
</svg>
