<svg width="14" height="17" viewBox="0 0 14 17" fill="none" xmlns="http://www.w3.org/2000/svg">
<path d="M3.78979 15.7742C4.75579 15.6209 5.34613 15.4675 5.56079 15.3142C5.77546 15.1455 5.88279 14.8235 5.88279 14.3482V1.9282C3.90479 1.95887 2.84679 2.00487 2.70879 2.0662C2.57079 2.12754 2.46346 2.19654 2.38679 2.2732C2.20279 2.51854 1.98046 3.38487 1.71979 4.8722L0.546793 4.7802C0.53146 4.5502 0.523793 4.10554 0.523793 3.4462C0.523793 2.77154 0.592793 1.86687 0.730793 0.732203H13.2658C13.4038 1.86687 13.4728 2.77154 13.4728 3.4462C13.4728 4.10554 13.4651 4.5502 13.4498 4.7802L12.2768 4.8722C12.0161 3.38487 11.7861 2.51854 11.5868 2.2732C11.5255 2.19654 11.4258 2.12754 11.2878 2.0662C11.1498 2.00487 10.0918 1.95887 8.11379 1.9282V14.9002C8.11379 15.2529 8.26713 15.4522 8.57379 15.4982L10.3448 15.7742L10.2528 16.6712H3.92779L3.78979 15.7742Z" fill="#344054"/>
</svg>
