<svg width="20" height="20" viewBox="0 0 20 20" fill="none" xmlns="http://www.w3.org/2000/svg">
<g id="redo">
<path id="Icon color" d="M1.66683 5.83333C1.66683 5.3731 2.03993 5 2.50016 5C2.9604 5 3.3335 5.3731 3.3335 5.83333V8.9622L4.44323 7.96344C5.96994 6.59414 7.94893 5.83542 9.99974 5.83333C12.2099 5.83333 14.3299 6.71131 15.8927 8.27411C17.4555 9.83691 18.3335 11.9565 18.3335 14.1667C18.3335 14.6269 17.9604 15 17.5002 15C17.0399 15 16.6668 14.6269 16.6668 14.1667C16.6668 12.3986 15.9645 10.7029 14.7142 9.45262C13.4641 8.20248 11.7685 7.50011 10.0006 7.5C8.36033 7.50178 6.77775 8.10868 5.55657 9.2037L4.67179 10H7.50016C7.9604 10 8.3335 10.3731 8.3335 10.8333C8.3335 11.2936 7.9604 11.6667 7.50016 11.6667H2.50016C2.03993 11.6667 1.66683 11.2936 1.66683 10.8333V5.83333Z" fill="#4D6277"/>
</g>
</svg>
