<svg width="16" height="17" viewBox="0 0 16 17" fill="none" xmlns="http://www.w3.org/2000/svg">
<g id="upload">
<g id="Icon color">
<path d="M8.25486 1.8839C8.33349 1.91643 8.40716 1.96466 8.47108 2.02858L11.8044 5.36191C12.0648 5.62226 12.0648 6.04437 11.8044 6.30472C11.5441 6.56507 11.122 6.56507 10.8616 6.30472L8.66634 4.10946V10.5C8.66634 10.8682 8.36786 11.1666 7.99967 11.1666C7.63148 11.1666 7.33301 10.8682 7.33301 10.5V4.10946L5.13775 6.30472C4.8774 6.56507 4.45529 6.56507 4.19494 6.30472C3.93459 6.04437 3.93459 5.62226 4.19494 5.36191L7.52792 2.02893" fill="#5F98D0"/>
<path d="M8.25486 1.8839C8.17626 1.8513 8.09007 1.83331 7.99967 1.83331C7.8163 1.83331 7.65021 1.90735 7.52969 2.02716" fill="#5F98D0"/>
<path d="M1.99967 9.83331C2.36786 9.83331 2.66634 10.1318 2.66634 10.5V13.1666C2.66634 13.3435 2.73658 13.513 2.8616 13.6381C2.98663 13.7631 3.1562 13.8333 3.33301 13.8333H12.6663C12.8432 13.8333 13.0127 13.7631 13.1377 13.6381C13.2628 13.513 13.333 13.3435 13.333 13.1666V10.5C13.333 10.1318 13.6315 9.83331 13.9997 9.83331C14.3679 9.83331 14.6663 10.1318 14.6663 10.5V13.1666C14.6663 13.6971 14.4556 14.2058 14.0806 14.5809C13.7055 14.9559 13.1968 15.1666 12.6663 15.1666H3.33301C2.80257 15.1666 2.29387 14.9559 1.91879 14.5809C1.54372 14.2058 1.33301 13.6971 1.33301 13.1666V10.5C1.33301 10.1318 1.63148 9.83331 1.99967 9.83331Z" fill="#5F98D0"/>
</g>
</g>
</svg>
