<svg width="17" height="16" viewBox="0 0 17 16" fill="none" xmlns="http://www.w3.org/2000/svg">
<path fill-rule="evenodd" clip-rule="evenodd" d="M8.66368 2.01017C9.32164 1.94371 9.98083 2.1241 10.5133 2.51632C11.0457 2.90854 11.4134 3.4846 11.545 4.13269C11.6183 4.49351 11.9702 4.72662 12.331 4.65336C12.6918 4.58009 12.925 4.22819 12.8517 3.86736C12.6543 2.89524 12.1027 2.03114 11.3041 1.44281C10.5054 0.854482 9.51663 0.583899 8.52969 0.68359C7.54691 0.782861 6.63577 1.24224 5.97161 1.97299L5.96306 1.98228C5.29856 2.71803 4.93098 3.67431 4.93156 4.66567L4.93156 6.66675H4.26489C3.16032 6.66675 2.26489 7.56218 2.26489 8.66675V13.3334C2.26489 14.438 3.16032 15.3334 4.26489 15.3334H13.5982C14.7028 15.3334 15.5982 14.438 15.5982 13.3334V8.66675C15.5982 7.56218 14.7028 6.66675 13.5982 6.66675H6.26489L6.26489 4.66601C6.26423 4.00811 6.50679 3.37331 6.94572 2.88356L6.95268 2.87597C7.39593 2.3852 8.00572 2.07663 8.66368 2.01017ZM4.26489 8.00008C3.8967 8.00008 3.59823 8.29856 3.59823 8.66675V13.3334C3.59823 13.7016 3.8967 14.0001 4.26489 14.0001H13.5982C13.9664 14.0001 14.2649 13.7016 14.2649 13.3334V8.66675C14.2649 8.29856 13.9664 8.00008 13.5982 8.00008H4.26489Z" fill="#4D6277"/>
</svg>
