<svg width="28" height="29" viewBox="0 0 28 29" fill="none" xmlns="http://www.w3.org/2000/svg">
<g id="Frame" clip-path="url(#clip0_1597_130)">
<path id="Vector" d="M11.2063 22.2583H24.7765V12.7095H11.2063V22.2583ZM1.71955 26.75C0.913059 26.75 0.230426 26.4642 -0.328346 25.8925C-0.887118 25.3208 -1.1665 24.6224 -1.1665 23.7973V5.20266C-1.1665 4.37755 -0.887118 3.67917 -0.328346 3.1075C0.230426 2.53583 0.913059 2.25 1.71955 2.25H26.2808C27.0873 2.25 27.7699 2.53583 28.3287 3.1075C28.8874 3.67917 29.1668 4.37755 29.1668 5.20266V23.7973C29.1668 24.6224 28.8874 25.3208 28.3287 25.8925C27.7699 26.4642 27.0873 26.75 26.2808 26.75H1.71955ZM1.71955 24.3H26.2808C26.4037 24.3 26.5163 24.2476 26.6184 24.1428C26.7209 24.0383 26.7721 23.9231 26.7721 23.7973V5.20266C26.7721 5.07689 26.7209 4.96174 26.6184 4.85721C26.5163 4.7524 26.4037 4.7 26.2808 4.7H1.71955C1.59662 4.7 1.48407 4.7524 1.3819 4.85721C1.27945 4.96174 1.22823 5.07689 1.22823 5.20266V23.7973C1.22823 23.9231 1.27945 24.0383 1.3819 24.1428C1.48407 24.2476 1.59662 24.3 1.71955 24.3Z" fill="#344054"/>
</g>
<defs>
<clipPath id="clip0_1597_130">
<rect width="28" height="28" fill="white" transform="translate(0 0.5)"/>
</clipPath>
</defs>
</svg>
