<svg width="18" height="18" viewBox="0 0 18 18" fill="none" xmlns="http://www.w3.org/2000/svg">
<g id="zoom-out">
<g id="Icon color">
<path d="M5.90674 7.58329C5.51554 7.58329 5.1984 7.90042 5.1984 8.29163C5.1984 8.68283 5.51554 8.99996 5.90674 8.99996H10.1567C10.5479 8.99996 10.8651 8.68283 10.8651 8.29163C10.8651 7.90042 10.5479 7.58329 10.1567 7.58329H5.90674Z" fill="#4D6277"/>
<path fill-rule="evenodd" clip-rule="evenodd" d="M8.03174 14.6666C9.53694 14.6666 10.9203 14.145 12.0109 13.2726L14.6141 15.8758C14.8908 16.1525 15.3392 16.1525 15.6159 15.8758C15.8925 15.5992 15.8925 15.1507 15.6159 14.8741L13.0126 12.2709C13.8851 11.1803 14.4067 9.79686 14.4067 8.29163C14.4067 4.77081 11.5526 1.91663 8.03174 1.91663C4.51092 1.91663 1.65674 4.77081 1.65674 8.29163C1.65674 11.8124 4.51092 14.6666 8.03174 14.6666ZM8.03174 3.33329C5.29333 3.33329 3.0734 5.55321 3.0734 8.29163C3.0734 11.03 5.29333 13.25 8.03174 13.25C9.36749 13.25 10.5799 12.7218 11.4714 11.8629C11.4901 11.8385 11.5106 11.8151 11.5329 11.7928C11.5552 11.7706 11.5786 11.7501 11.6029 11.7314C12.4619 10.8398 12.9901 9.6274 12.9901 8.29163C12.9901 5.55321 10.7702 3.33329 8.03174 3.33329Z" fill="#4D6277"/>
</g>
</g>
</svg>
