<svg width="18" height="16" viewBox="0 0 18 16" fill="none" xmlns="http://www.w3.org/2000/svg">
<g id="zoom-in">
<g id="Icon color">
<path d="M8.03174 4.73066C8.42294 4.73066 8.74007 5.02339 8.74007 5.3845V6.69219H10.1567C10.5479 6.69219 10.8651 6.98493 10.8651 7.34604C10.8651 7.70715 10.5479 7.99989 10.1567 7.99989H8.74007V9.30758C8.74007 9.66869 8.42294 9.96143 8.03174 9.96143C7.64054 9.96143 7.3234 9.66869 7.3234 9.30758V7.99989H5.90674C5.51554 7.99989 5.1984 7.70715 5.1984 7.34604C5.1984 6.98493 5.51554 6.69219 5.90674 6.69219H7.3234V5.3845C7.3234 5.02339 7.64054 4.73066 8.03174 4.73066Z" fill="#4D6277"/>
<path fill-rule="evenodd" clip-rule="evenodd" d="M12.0109 11.9439C10.9203 12.7491 9.53694 13.2307 8.03174 13.2307C4.51092 13.2307 1.65674 10.596 1.65674 7.34604C1.65674 4.09606 4.51092 1.46143 8.03174 1.46143C11.5526 1.46143 14.4067 4.09606 14.4067 7.34604C14.4067 8.73549 13.8851 10.0125 13.0126 11.0192L15.6159 13.4222C15.8925 13.6775 15.8925 14.0915 15.6159 14.3468C15.3392 14.6022 14.8908 14.6022 14.6141 14.3468L12.0109 11.9439ZM3.0734 7.34604C3.0734 4.81828 5.29333 2.76912 8.03174 2.76912C10.7702 2.76912 12.9901 4.81828 12.9901 7.34604C12.9901 8.57907 12.4619 9.69821 11.6029 10.5212C11.5786 10.5384 11.5552 10.5574 11.5329 10.5779C11.5106 10.5985 11.4901 10.6201 11.4714 10.6426C10.5799 11.4354 9.36749 11.923 8.03174 11.923C5.29333 11.923 3.0734 9.87381 3.0734 7.34604Z" fill="#4D6277"/>
</g>
</g>
</svg>
